<?xml version="1.0" encoding="UTF-8"?>
<!DOCTYPE svg PUBLIC "-//W3C//DTD SVG 1.1//EN" "http://www.w3.org/Graphics/SVG/1.1/DTD/svg11.dtd">
<svg xmlns="http://www.w3.org/2000/svg" version="1.1" width="128px" height="128px" style="shape-rendering:geometricPrecision; text-rendering:geometricPrecision; image-rendering:optimizeQuality; fill-rule:evenodd; clip-rule:evenodd" xmlns:xlink="http://www.w3.org/1999/xlink">
<g><path style="opacity:0.957" fill="#f7fafb" d="M 51.5,-0.5 C 59.5,-0.5 67.5,-0.5 75.5,-0.5C 103.167,6.5 120.5,23.8333 127.5,51.5C 127.5,54.1667 127.5,56.8333 127.5,59.5C 126.761,59.369 126.094,59.5357 125.5,60C 124.95,61.8446 123.95,63.3446 122.5,64.5C 121.831,62.3691 121.165,60.3691 120.5,58.5C 119.489,49.1346 116.489,40.4679 111.5,32.5C 96.4109,11.6322 76.0776,3.46549 50.5,8C 36.8386,11.5325 26.1719,19.0325 18.5,30.5C 8.4342,43.0943 4.76753,57.4276 7.5,73.5C 6.27576,76.4847 6.60909,79.1514 8.5,81.5C 7.63986,83.9307 5.97319,85.264 3.5,85.5C 3.40505,83.2143 2.73838,81.2143 1.5,79.5C 0.833333,78.1667 0.166667,76.8333 -0.5,75.5C -0.5,67.5 -0.5,59.5 -0.5,51.5C 6.5,23.8333 23.8333,6.5 51.5,-0.5 Z"/></g>
<g><path style="opacity:1" fill="#65bbf9" d="M 111.5,32.5 C 109.864,33.2455 108.197,32.9122 106.5,31.5C 105.476,32.8532 104.143,33.5198 102.5,33.5C 102.649,32.448 102.483,31.448 102,30.5C 101.114,33.0929 99.6139,35.0929 97.5,36.5C 92.3495,31.1015 87.0162,25.9348 81.5,21C 74.3019,19.177 71.3019,22.0103 72.5,29.5C 59.8289,29.3334 47.1623,29.5001 34.5,30C 32.0038,31.331 30.0038,33.1644 28.5,35.5C 27.1266,35.6567 25.7932,35.49 24.5,35C 24.273,33.8647 23.9396,32.698 23.5,31.5C 21.0387,34.4227 19.3721,34.0894 18.5,30.5C 26.1719,19.0325 36.8386,11.5325 50.5,8C 76.0776,3.46549 96.4109,11.6322 111.5,32.5 Z"/></g>
<g><path style="opacity:1" fill="#24284a" d="M 97.5,36.5 C 100.24,38.9003 101.073,41.9003 100,45.5C 97.6278,47.7032 95.4611,50.0365 93.5,52.5C 89.3356,55.8316 85.6689,59.665 82.5,64C 74.3869,66.3959 71.0536,63.2293 72.5,54.5C 60.4954,54.6665 48.4954,54.4999 36.5,54C 35.4734,53.4867 34.4734,52.9867 33.5,52.5C 27.1516,48.1285 25.485,42.4619 28.5,35.5C 30.0038,33.1644 32.0038,31.331 34.5,30C 47.1623,29.5001 59.8289,29.3334 72.5,29.5C 71.3019,22.0103 74.3019,19.177 81.5,21C 87.0162,25.9348 92.3495,31.1015 97.5,36.5 Z"/></g>
<g><path style="opacity:1" fill="#f6f7f7" d="M 75.5,23.5 C 77.1992,23.3398 78.8659,23.5065 80.5,24C 86.7364,30.0679 92.7364,36.2345 98.5,42.5C 92.3481,49.1522 86.0148,55.6522 79.5,62C 78.2161,62.6838 77.0495,62.5171 76,61.5C 75.7883,58.2423 75.2883,55.0757 74.5,52C 62.1667,51.6667 49.8333,51.3333 37.5,51C 31.2604,49.0143 28.7604,44.8476 30,38.5C 30.6853,35.9427 32.1853,34.1094 34.5,33C 47.8333,32.6667 61.1667,32.3333 74.5,32C 75.4438,29.2809 75.7771,26.4475 75.5,23.5 Z"/></g>
<g><path style="opacity:1" fill="#5badf4" d="M 111.5,32.5 C 116.489,40.4679 119.489,49.1346 120.5,58.5C 120.815,62.3714 120.482,66.0381 119.5,69.5C 119.872,66.0771 118.539,63.5771 115.5,62C 116.784,61.3162 117.951,61.4829 119,62.5C 119.388,60.9242 118.888,59.5909 117.5,58.5C 115.167,61.1667 112.833,61.1667 110.5,58.5C 108.487,61.3797 106.32,63.3797 104,64.5C 102.376,62.8419 100.709,61.1752 99,59.5C 98.6827,61.3008 98.016,61.6341 97,60.5C 95.522,57.8421 94.3554,55.1755 93.5,52.5C 95.4611,50.0365 97.6278,47.7032 100,45.5C 101.073,41.9003 100.24,38.9003 97.5,36.5C 99.6139,35.0929 101.114,33.0929 102,30.5C 102.483,31.448 102.649,32.448 102.5,33.5C 104.143,33.5198 105.476,32.8532 106.5,31.5C 108.197,32.9122 109.864,33.2455 111.5,32.5 Z"/></g>
<g><path style="opacity:1" fill="#57aaf4" d="M 18.5,30.5 C 19.3721,34.0894 21.0387,34.4227 23.5,31.5C 23.9396,32.698 24.273,33.8647 24.5,35C 25.7932,35.49 27.1266,35.6567 28.5,35.5C 25.485,42.4619 27.1516,48.1285 33.5,52.5C 34.1223,54.335 35.4556,55.5017 37.5,56C 48.8333,56.3333 60.1667,56.6667 71.5,57C 71.0037,58.9964 70.0037,60.6631 68.5,62C 68.8333,62.3333 69.1667,62.6667 69.5,63C 66.3448,65.0466 63.3448,64.8799 60.5,62.5C 59.8333,62.8333 59.1667,63.1667 58.5,63.5C 59.1654,65.1012 59.4988,66.6012 59.5,68C 58.1509,68.7724 57.3176,69.9391 57,71.5C 56.8138,68.9644 56.3138,66.631 55.5,64.5C 53.0217,61.301 50.0217,60.801 46.5,63C 40.6314,69.0362 34.6314,74.8695 28.5,80.5C 28.762,79.0222 28.4287,77.6888 27.5,76.5C 25.2347,77.9793 22.9013,79.3126 20.5,80.5C 19.914,80.2907 19.414,79.9574 19,79.5C 14.1834,82.5957 11.1834,81.2623 10,75.5C 9.51722,76.448 9.35055,77.448 9.5,78.5C 8.83333,76.8333 8.16667,75.1667 7.5,73.5C 4.76753,57.4276 8.4342,43.0943 18.5,30.5 Z"/></g>
<g><path style="opacity:1" fill="#50a6f3" d="M 33.5,52.5 C 34.4734,52.9867 35.4734,53.4867 36.5,54C 48.4954,54.4999 60.4954,54.6665 72.5,54.5C 71.0536,63.2293 74.3869,66.3959 82.5,64C 85.6689,59.665 89.3356,55.8316 93.5,52.5C 94.3554,55.1755 95.522,57.8421 97,60.5C 98.016,61.6341 98.6827,61.3008 99,59.5C 100.709,61.1752 102.376,62.8419 104,64.5C 106.32,63.3797 108.487,61.3797 110.5,58.5C 112.833,61.1667 115.167,61.1667 117.5,58.5C 118.888,59.5909 119.388,60.9242 119,62.5C 117.951,61.4829 116.784,61.3162 115.5,62C 118.539,63.5771 119.872,66.0771 119.5,69.5C 118.998,78.3406 116.331,86.3406 111.5,93.5C 111.674,91.139 112.007,88.8056 112.5,86.5C 109.124,84.7587 105.791,83.092 102.5,81.5C 102.847,84.3409 102.513,86.3409 101.5,87.5C 101.44,79.9393 97.7737,75.1059 90.5,73C 78.8381,72.5001 67.1714,72.3335 55.5,72.5C 55.5,69.8333 55.5,67.1667 55.5,64.5C 56.3138,66.631 56.8138,68.9644 57,71.5C 57.3176,69.9391 58.1509,68.7724 59.5,68C 59.4988,66.6012 59.1654,65.1012 58.5,63.5C 59.1667,63.1667 59.8333,62.8333 60.5,62.5C 63.3448,64.8799 66.3448,65.0466 69.5,63C 69.1667,62.6667 68.8333,62.3333 68.5,62C 70.0037,60.6631 71.0037,58.9964 71.5,57C 60.1667,56.6667 48.8333,56.3333 37.5,56C 35.4556,55.5017 34.1223,54.335 33.5,52.5 Z"/></g>
<g><path style="opacity:1" fill="#202448" d="M 55.5,64.5 C 55.5,67.1667 55.5,69.8333 55.5,72.5C 67.1714,72.3335 78.8381,72.5001 90.5,73C 97.7737,75.1059 101.44,79.9393 101.5,87.5C 99.9748,90.563 97.9748,93.2297 95.5,95.5C 93.4885,96.2283 91.4885,97.0617 89.5,98C 78.1716,98.4999 66.8382,98.6665 55.5,98.5C 57.0041,105.493 54.3375,108.327 47.5,107C 42.018,101.352 36.3514,95.852 30.5,90.5C 27.4719,87.6697 26.8052,84.3364 28.5,80.5C 34.6314,74.8695 40.6314,69.0362 46.5,63C 50.0217,60.801 53.0217,61.301 55.5,64.5 Z"/></g>
<g><path style="opacity:1" fill="#e9eef0" d="M 48.5,64.5 C 49.8221,64.33 50.9887,64.6634 52,65.5C 52.2117,68.7577 52.7117,71.9243 53.5,75C 66.1667,75.3333 78.8333,75.6667 91.5,76C 101.266,83.3023 100.599,89.6356 89.5,95C 77.5,95.3333 65.5,95.6667 53.5,96C 52.5562,98.7191 52.2229,101.552 52.5,104.5C 50.8008,104.66 49.1341,104.494 47.5,104C 41.6161,97.6211 35.9494,91.1211 30.5,84.5C 36.1217,77.5422 42.1217,70.8756 48.5,64.5 Z"/></g>
<g><path style="opacity:0.959" fill="#dee7ec" d="M 120.5,58.5 C 121.165,60.3691 121.831,62.3691 122.5,64.5C 123.95,63.3446 124.95,61.8446 125.5,60C 126.094,59.5357 126.761,59.369 127.5,59.5C 127.5,64.8333 127.5,70.1667 127.5,75.5C 120.5,103.167 103.167,120.5 75.5,127.5C 67.5,127.5 59.5,127.5 51.5,127.5C 25.3698,121.37 8.70317,105.37 1.5,79.5C 2.73838,81.2143 3.40505,83.2143 3.5,85.5C 5.97319,85.264 7.63986,83.9307 8.5,81.5C 6.60909,79.1514 6.27576,76.4847 7.5,73.5C 8.16667,75.1667 8.83333,76.8333 9.5,78.5C 12.5121,92.172 19.8454,102.839 31.5,110.5C 45.3565,120.416 60.6899,123.249 77.5,119C 83.0469,117.888 88.0469,115.722 92.5,112.5C 101.167,108.5 107.5,102.167 111.5,93.5C 116.331,86.3406 118.998,78.3406 119.5,69.5C 120.482,66.0381 120.815,62.3714 120.5,58.5 Z"/></g>
<g><path style="opacity:1" fill="#3f8ce9" d="M 30.5,90.5 C 36.3514,95.852 42.018,101.352 47.5,107C 54.3375,108.327 57.0041,105.493 55.5,98.5C 66.8382,98.6665 78.1716,98.4999 89.5,98C 91.4885,97.0617 93.4885,96.2283 95.5,95.5C 96.2389,95.369 96.9056,95.5357 97.5,96C 96.3279,96.4186 95.3279,97.0853 94.5,98C 95.6776,98.9669 97.011,99.4669 98.5,99.5C 93.4761,100.892 92.8094,103.058 96.5,106C 94.3679,107.697 93.0346,109.864 92.5,112.5C 88.0469,115.722 83.0469,117.888 77.5,119C 60.6899,123.249 45.3565,120.416 31.5,110.5C 29.9227,108.198 30.5894,106.698 33.5,106C 32.8333,105.667 32.1667,105.333 31.5,105C 32.6226,103.956 33.9559,103.29 35.5,103C 33.1167,102.935 32.45,102.102 33.5,100.5C 32.4845,97.1452 31.4845,93.8119 30.5,90.5 Z"/></g>
<g><path style="opacity:1" fill="#4794ea" d="M 111.5,93.5 C 107.5,102.167 101.167,108.5 92.5,112.5C 93.0346,109.864 94.3679,107.697 96.5,106C 92.8094,103.058 93.4761,100.892 98.5,99.5C 97.011,99.4669 95.6776,98.9669 94.5,98C 95.3279,97.0853 96.3279,96.4186 97.5,96C 96.9056,95.5357 96.2389,95.369 95.5,95.5C 97.9748,93.2297 99.9748,90.563 101.5,87.5C 102.513,86.3409 102.847,84.3409 102.5,81.5C 105.791,83.092 109.124,84.7587 112.5,86.5C 112.007,88.8056 111.674,91.139 111.5,93.5 Z"/></g>
<g><path style="opacity:1" fill="#4996eb" d="M 28.5,80.5 C 26.8052,84.3364 27.4719,87.6697 30.5,90.5C 31.4845,93.8119 32.4845,97.1452 33.5,100.5C 32.45,102.102 33.1167,102.935 35.5,103C 33.9559,103.29 32.6226,103.956 31.5,105C 32.1667,105.333 32.8333,105.667 33.5,106C 30.5894,106.698 29.9227,108.198 31.5,110.5C 19.8454,102.839 12.5121,92.172 9.5,78.5C 9.35055,77.448 9.51722,76.448 10,75.5C 11.1834,81.2623 14.1834,82.5957 19,79.5C 19.414,79.9574 19.914,80.2907 20.5,80.5C 22.9013,79.3126 25.2347,77.9793 27.5,76.5C 28.4287,77.6888 28.762,79.0222 28.5,80.5 Z"/></g>
</svg>
